<?xml version="1.0" standalone="no"?>
<!DOCTYPE svg PUBLIC "-//W3C//DTD SVG 20010904//EN"
 "http://www.w3.org/TR/2001/REC-SVG-20010904/DTD/svg10.dtd">
<svg version="1.0" xmlns="http://www.w3.org/2000/svg"
 width="250.000000pt" height="250.000000pt" viewBox="0 0 250.000000 250.000000"
 preserveAspectRatio="xMidYMid meet">

<g transform="translate(0.000000,250.000000) scale(0.100000,-0.100000)"
fill="#000000" stroke="none">
<path d="M1101 2489 c-303 -35 -606 -199 -803 -434 -442 -527 -378 -1310 143
-1753 465 -397 1153 -397 1618 0 522 444 585 1234 139 1757 -269 316 -682 478
-1097 430z m-88 -419 c89 -45 146 -133 155 -236 4 -52 1 -68 -18 -98 -18 -30
-27 -36 -56 -36 -34 0 -36 2 -81 96 -49 102 -70 123 -131 131 -102 14 -179
-64 -164 -166 8 -56 56 -92 189 -144 135 -53 204 -97 243 -156 l27 -40 11 132
c17 207 70 346 165 442 80 79 132 100 247 100 114 0 162 -19 241 -96 90 -87
142 -245 105 -317 -22 -43 -50 -57 -86 -42 -21 9 -37 32 -66 93 -64 138 -126
186 -218 173 -49 -8 -96 -39 -132 -87 -91 -124 -105 -491 -24 -649 35 -67 113
-120 177 -120 44 1 107 34 141 76 18 21 43 73 58 116 27 81 48 116 74 119 37
4 52 -3 71 -33 17 -27 19 -45 16 -98 -11 -164 -127 -322 -262 -360 -71 -20
-192 -9 -259 24 -88 43 -170 151 -206 274 -7 23 -15 41 -17 39 -2 -2 -8 -30
-14 -62 -31 -169 -143 -274 -299 -283 -174 -10 -293 76 -344 247 -25 83 -21
143 10 180 50 60 95 32 133 -82 40 -118 88 -167 165 -167 116 0 197 106 167
218 -19 70 -51 97 -168 142 -133 51 -183 81 -232 137 -53 60 -73 124 -73 232
1 166 65 267 201 318 59 22 196 13 254 -17z m867 -1294 c0 -2 3 -11 6 -20 9
-23 -13 -20 -26 4 -9 16 -8 20 5 20 8 0 15 -2 15 -4z m-1248 -58 c21 -18 30
-46 16 -54 -6 -4 -17 1 -24 10 -14 20 -49 18 -49 -2 0 -7 18 -23 40 -35 33
-19 40 -28 43 -58 4 -41 -23 -71 -63 -71 -28 0 -54 26 -55 54 0 28 19 31 30 4
11 -30 44 -35 55 -8 4 11 -1 22 -15 32 -72 49 -86 84 -50 120 23 23 49 26 72
8z m168 -8 c25 -25 34 -60 27 -117 -9 -78 -72 -112 -120 -64 -18 18 -22 33
-22 87 0 60 3 68 28 90 34 29 61 30 87 4z m158 -2 c3 -15 -4 -18 -32 -18 -31
0 -36 -3 -36 -24 0 -19 6 -25 27 -28 17 -2 29 -10 31 -20 3 -14 -3 -18 -27
-18 -30 0 -31 -1 -31 -45 0 -33 -4 -45 -15 -45 -12 0 -15 18 -15 103 0 57 3
107 7 111 4 4 25 6 48 4 29 -2 41 -8 43 -20z m140 0 c2 -11 -5 -18 -20 -20
-22 -3 -23 -8 -26 -90 -2 -69 -6 -88 -17 -88 -12 0 -15 18 -15 90 0 89 0 90
-25 90 -15 0 -25 6 -25 14 0 20 17 25 75 23 38 -2 51 -6 53 -19z m135 -10 c13
-17 17 -33 13 -45 -7 -16 -9 -15 -28 10 -36 50 -70 27 -70 -50 0 -33 5 -51 18
-60 26 -19 32 -17 49 17 17 32 35 32 35 1 0 -31 -34 -63 -64 -63 -49 0 -71 33
-71 108 0 60 3 68 29 90 35 30 62 28 89 -8z m125 5 c15 -39 52 -168 52 -182 0
-22 -30 -11 -36 14 -5 21 -12 25 -40 25 -27 0 -34 -4 -34 -19 0 -23 -18 -37
-31 -24 -6 6 -6 21 0 39 6 16 19 62 31 102 22 77 40 91 58 45z m170 5 c3 -13
-3 -18 -22 -18 l-26 0 0 -90 c0 -73 -3 -90 -15 -90 -12 0 -15 17 -15 90 0 89
0 90 -25 90 -24 0 -33 18 -18 34 4 4 32 6 63 4 43 -2 56 -7 58 -20z m114 -79
c15 -52 28 -100 28 -106 0 -24 -30 -13 -36 12 -5 20 -13 25 -35 25 -22 0 -32
-6 -39 -25 -9 -24 -21 -31 -32 -19 -4 3 5 47 19 97 41 149 55 152 95 16z m78
6 l0 -84 37 -3 c27 -2 39 -8 41 -21 3 -16 -3 -18 -50 -15 l-53 3 -3 94 c-3 99
1 126 18 116 5 -3 10 -44 10 -90z m184 63 c8 -18 22 -66 32 -105 14 -57 16
-75 6 -85 -9 -9 -14 -5 -23 20 -9 26 -16 32 -40 32 -22 0 -30 -6 -35 -25 -7
-28 -34 -34 -34 -7 0 19 45 176 55 192 11 19 26 10 39 -22z m-749 -318 c-33
-33 -52 -47 -59 -40 -14 14 61 90 88 90 16 0 11 -10 -29 -50z m53 -17 c-54
-53 -70 -65 -80 -55 -18 18 86 122 122 122 22 0 18 -6 -42 -67z m46 -14 c-52
-52 -86 -79 -94 -74 -17 10 128 155 155 155 15 0 0 -20 -61 -81z m52 -18 c-92
-93 -116 -109 -116 -78 0 6 37 49 82 94 60 60 90 83 108 83 21 0 12 -13 -74
-99z"/>
<path d="M730 675 c-18 -21 -16 -104 3 -122 38 -38 83 47 55 105 -16 32 -40
39 -58 17z"/>
<path d="M1331 660 c-1 -8 -4 -25 -7 -37 -5 -17 -2 -23 10 -23 17 0 20 23 6
55 -6 13 -9 15 -9 5z"/>
<path d="M1591 660 c-1 -8 -4 -25 -7 -37 -5 -17 -2 -23 10 -23 17 0 20 23 6
55 -6 13 -9 15 -9 5z"/>
<path d="M1870 646 c0 -8 -3 -21 -6 -30 -4 -12 0 -16 16 -16 16 0 20 4 16 16
-3 9 -6 22 -6 30 0 8 -4 14 -10 14 -5 0 -10 -6 -10 -14z"/>
</g>
</svg>
